<?xml version="1.0" encoding="iso-8859-1"?>
<!-- Generator: Adobe Illustrator 19.0.0, SVG Export Plug-In . SVG Version: 6.00 Build 0)  -->
<svg version="1.1" id="Capa_1" xmlns="http://www.w3.org/2000/svg" xmlns:xlink="http://www.w3.org/1999/xlink" x="0px" y="0px"
	 viewBox="0 0 512 512" style="enable-background:new 0 0 512 512;" xml:space="preserve">
<g>
	<path style="fill:#804537;" d="M35.31,97.103H8.828c-4.869,0.014-8.813,3.958-8.828,8.828v361.931
		c0.014,4.869,3.958,8.813,8.828,8.828h197.297C213.577,497.847,233.568,512,256,512s42.423-14.153,49.876-35.31h197.297
		c4.869-0.014,8.813-3.958,8.828-8.828V105.931c-0.014-4.869-3.958-8.813-8.828-8.828H35.31z"/>
	<path style="fill:#CBB292;" d="M256,97.103v308.966c-0.023-29.242-23.723-52.942-52.966-52.966H44.138
		c-4.869,0.015-8.813,3.958-8.828,8.828V52.966c0.015-4.869,3.958-8.813,8.828-8.828h158.897
		C232.277,44.161,255.977,67.861,256,97.103z"/>
	<path style="fill:#FDD7AD;" d="M476.69,52.966v308.966c-0.015-4.869-3.958-8.813-8.828-8.828H308.966
		c-29.242,0.023-52.942,23.723-52.966,52.966V97.103c0.023-29.242,23.723-52.942,52.966-52.966h158.897
		C472.731,44.152,476.675,48.096,476.69,52.966z"/>
	<path style="fill:#7F6E5D;" d="M476.69,361.931v70.621c-0.015,4.869-3.958,8.813-8.828,8.828H44.138
		c-4.869-0.015-8.813-3.958-8.828-8.828v-70.621c0.015-4.869,3.958-8.813,8.828-8.828h158.897
		c29.242,0.023,52.942,23.723,52.966,52.966c0.023-29.242,23.723-52.942,52.966-52.966h158.897
		C472.731,353.118,476.675,357.062,476.69,361.931z"/>
	<g>
		<path style="fill:#CBB292;" d="M211.862,397.241c-0.015,4.869-3.958,8.813-8.828,8.828H35.31v-17.655h167.724
			C207.904,388.428,211.848,392.372,211.862,397.241z"/>
		<path style="fill:#CBB292;" d="M476.69,388.414v17.655H308.966c-4.875,0-8.828-3.952-8.828-8.828c0-4.875,3.952-8.828,8.828-8.828
			H476.69z"/>
		<path style="fill:#CBB292;" d="M441.379,97.103H317.793c-4.875,0-8.828-3.952-8.828-8.828c0-4.875,3.952-8.828,8.828-8.828
			h123.586c4.875,0,8.828,3.952,8.828,8.828C450.207,93.151,446.255,97.103,441.379,97.103z"/>
		<path style="fill:#CBB292;" d="M441.379,141.241H317.793c-4.875,0-8.828-3.952-8.828-8.828s3.952-8.828,8.828-8.828h123.586
			c4.875,0,8.828,3.952,8.828,8.828S446.255,141.241,441.379,141.241z"/>
		<path style="fill:#CBB292;" d="M441.379,185.379H317.793c-4.875,0-8.828-3.952-8.828-8.828s3.952-8.828,8.828-8.828h123.586
			c4.875,0,8.828,3.952,8.828,8.828S446.255,185.379,441.379,185.379z"/>
		<path style="fill:#CBB292;" d="M441.379,229.517H317.793c-4.875,0-8.828-3.952-8.828-8.828s3.952-8.828,8.828-8.828h123.586
			c4.875,0,8.828,3.952,8.828,8.828S446.255,229.517,441.379,229.517z"/>
	</g>
	<g>
		<path style="fill:#802F34;" d="M88.276,264.828c-2.341,0.001-4.587-0.929-6.243-2.585c-1.656-1.656-2.585-3.901-2.585-6.243
			v-61.793c0-4.875,3.952-8.828,8.828-8.828c4.875,0,8.828,3.952,8.828,8.828V256c0.001,2.341-0.929,4.587-2.585,6.243
			C92.863,263.898,90.617,264.828,88.276,264.828z"/>
		<path style="fill:#802F34;" d="M123.586,264.828c-2.341,0.001-4.587-0.929-6.243-2.585c-1.656-1.656-2.585-3.901-2.585-6.243
			v-61.793c0-4.875,3.952-8.828,8.828-8.828s8.828,3.952,8.828,8.828V256c0.001,2.341-0.929,4.587-2.585,6.243
			C128.173,263.898,125.928,264.828,123.586,264.828z"/>
		<path style="fill:#802F34;" d="M158.897,264.828c-2.341,0.001-4.587-0.929-6.243-2.585c-1.656-1.656-2.585-3.901-2.585-6.243
			v-61.793c0-4.875,3.952-8.828,8.828-8.828s8.828,3.952,8.828,8.828V256c0.001,2.341-0.929,4.587-2.585,6.243
			C163.484,263.898,161.238,264.828,158.897,264.828z"/>
	</g>
	<path style="fill:#CC4B4C;" d="M88.276,0h70.621c4.875,0,8.828,3.952,8.828,8.828v203.034c0,4.875-3.952,8.828-8.828,8.828H88.276
		c-4.875,0-8.828-3.952-8.828-8.828V8.828C79.448,3.952,83.401,0,88.276,0z"/>
</g>
<g>
</g>
<g>
</g>
<g>
</g>
<g>
</g>
<g>
</g>
<g>
</g>
<g>
</g>
<g>
</g>
<g>
</g>
<g>
</g>
<g>
</g>
<g>
</g>
<g>
</g>
<g>
</g>
<g>
</g>
</svg>
